:FULLY-SPECIFIED
:FORCE-ALL-JOINTS-BE-3DOF
:DEGREES
1121
root 0.698578 14.5146 -27.5779 361.254 9.3048 359.678
lfemur -28.4041 11.0634 -18.9309
ltibia 71.416 0 0
lfoot -26.7068 30.1806 0
ltoes -12.1526 0 0
rfemur -26.4308 -4.46153 2.6839
rtibia 56.3722 0 0
rfoot 10.9885 6.03453 0
rtoes -8.492 0 0
lowerback 13.5459 1.06242 -6.39461
upperback -0.592749 0.553626 2.3769
thorax -8.36363 0.598043 6.07608
lowerneck -4.21899 -3.94106 -6.74394
upperneck 6.67595 -5.53798 5.19832
head 3.68968 -2.73587 2.24663
lclavicle -5.09556e-14 1.53023e-14 0
lhumerus -2.72199 -13.9669 81.7421
lradius 92.6027 0 0
lwrist 41.6905 0 0
lhand -17.7007 15.5734 0
lfingers 7.12502 0 0
lthumb 8.5381 44.7355 0
rclavicle -5.09556e-14 1.53023e-14 0
rhumerus 7.23539 6.06819 -64.9481
rradius 98.2879 0 0
rwrist -16.4511 0 0
rhand -25.1954 -40.5108 0
rfingers 7.12502 0 0
rthumb 1.31768 -70.0174 0
1122
root 0.666009 14.5159 -27.3677 360.749 10.6199 359.889
lfemur -26.862 10.678 -18.6954
ltibia 70.9201 0 0
lfoot -27.0348 30.2517 0
ltoes -12.4307 0 0
rfemur -27.2169 -4.81587 2.54497
rtibia 55.4735 0 0
rfoot 11.0658 5.94032 0
rtoes -7.92648 0 0
lowerback 13.6376 1.10961 -6.57322
upperback -0.532122 0.575543 2.28509
thorax -8.35455 0.61248 6.07414
lowerneck -4.09698 -4.36479 -7.11447
upperneck 6.86729 -6.114 5.48354
head 3.77083 -3.02139 2.36186
lclavicle -5.22942e-14 1.5077e-14 0
lhumerus -6.6962 -14.5381 83.5774
lradius 93.1121 0 0
lwrist 42.4592 0 0
lhand -16.7988 14.5926 0
lfingers 7.12502 0 0
lthumb 9.40797 43.7267 0
rclavicle -5.22942e-14 1.5077e-14 0
rhumerus 10.6234 5.38221 -63.7139
rradius 98.0893 0 0
rwrist -14.3464 0 0
rhand -25.98 -40.6681 0
rfingers 7.12502 0 0
rthumb 0.56045 -70.1853 0
1123
root 0.633342 14.517 -27.1585 360.25 11.9246 360.097
lfemur -25.3279 10.2976 -18.4567
ltibia 70.4208 0 0
lfoot -27.3566 30.317 0
ltoes -12.7084 0 0
rfemur -27.9985 -5.17248 2.40931
rtibia 54.5828 0 0
rfoot 11.1317 5.84185 0
rtoes -7.3678 0 0
lowerback 13.7282 1.15681 -6.74992
upperback -0.472391 0.597796 2.19384
thorax -8.3459 0.62705 6.0716
lowerneck -3.97462 -4.78559 -7.48217
upperneck 7.0564 -6.68607 5.76731
head 3.85116 -3.30494 2.47643
lclavicle -5.35902e-14 1.48392e-14 0
lhumerus -10.6437 -15.103 85.396
lradius 93.6206 0 0
lwrist 43.2244 0 0
lhand -15.9064 13.6302 0
lfingers 7.12502 0 0
lthumb 10.2686 42.7368 0
rclavicle -5.35902e-14 1.48392e-14 0
rhumerus 13.9857 4.70029 -62.4846
rradius 97.8919 0 0
rwrist -12.2584 0 0
rhand -26.7597 -40.8197 0
rfingers 7.12502 0 0
rthumb -0.191931 -70.3474 0
1124
root 0.600665 14.518 -26.9505 359.758 13.2162 360.302
lfemur -23.8049 9.92273 -18.2158
ltibia 69.9185 0 0
lfoot -27.6715 30.3771 0
ltoes -12.9852 0 0
rfemur -28.7745 -5.53056 2.27737
rtibia 53.7036 0 0
rfoot 11.186 5.74006 0
rtoes -6.81716 0 0
lowerback 13.8175 1.204 -6.92454
upperback -0.413741 0.620376 2.10322
thorax -8.33777 0.641751 6.06845
lowerneck -3.85222 -5.20259 -7.84625
upperneck 7.24264 -7.25302 6.04906
head 3.93045 -3.58597 2.59012
lclavicle -5.48377e-14 1.45897e-14 0
lhumerus -14.5556 -15.6603 87.1937
lradius 94.1268 0 0
lwrist 43.985 0 0
lhand -15.0261 12.6896 0
lfingers 7.12502 0 0
lthumb 11.1177 41.7693 0
rclavicle -5.48377e-14 1.45897e-14 0
rhumerus 17.3148 4.02385 -61.2628
rradius 97.6957 0 0
rwrist -10.192 0 0
rhand -27.5325 -40.9654 0
rfingers 7.12502 0 0
rthumb -0.937735 -70.5034 0
1125
root 0.568064 14.5189 -26.7443 359.276 14.4919 360.505
lfemur -22.2959 9.55385 -17.9733
ltibia 69.4137 0 0
lfoot -27.9785 30.4328 0
ltoes -13.2607 0 0
rfemur -29.5439 -5.88929 2.14957
rtibia 52.8393 0 0
rfoot 11.2288 5.63588 0
rtoes -6.27577 0 0
lowerback 13.9054 1.25112 -7.09686
upperback -0.356358 0.643278 2.0133
thorax -8.33024 0.656583 6.06463
lowerneck -3.73006 -5.61494 -8.20596
upperneck 7.42534 -7.81368 6.32823
head 4.00844 -3.8639 2.70269
lclavicle -5.60303e-14 1.43293e-14 0
lhumerus -18.4231 -16.2085 88.9662
lradius 94.6297 0 0
lwrist 44.7401 0 0
lhand -14.1601 11.7742 0
lfingers 7.12502 0 0
lthumb 11.9529 40.8276 0
rclavicle -5.60303e-14 1.43293e-14 0
rhumerus 20.6033 3.35431 -60.0507
rradius 97.5009 0 0
rwrist -8.15219 0 0
rhand -28.2967 -41.1047 0
rfingers 7.12502 0 0
rthumb -1.67523 -70.653 0
1126
root 0.535626 14.5196 -26.5399 358.803 15.749 360.705
lfemur -20.8039 9.19146 -17.7301
ltibia 68.9069 0 0
lfoot -28.2767 30.4847 0
ltoes -13.5343 0 0
rfemur -30.3057 -6.24786 2.02637
rtibia 51.9935 0 0
rfoot 11.26 5.53023 0
rtoes -5.74484 0 0
lowerback 13.9916 1.29812 -7.26669
upperback -0.300425 0.666496 1.92417
thorax -8.3234 0.671544 6.06014
lowerneck -3.60843 -6.02178 -8.56054
upperneck 7.60386 -8.3669 6.60426
head 4.08489 -4.13814 2.81393
lclavicle -5.71621e-14 1.40585e-14 0
lhumerus -22.2371 -16.7463 90.7094
lradius 95.1281 0 0
lwrist 45.4885 0 0
lhand -13.3108 10.8874 0
lfingers 7.12502 0 0
lthumb 12.772 39.9152 0
rclavicle -5.71621e-14 1.40585e-14 0
rhumerus 23.8437 2.69307 -58.8508
rradius 97.3076 0 0
rwrist -6.14375 0 0
rhand -29.0506 -41.2373 0
rfingers 7.12502 0 0
rthumb -2.40268 -70.7957 0
1127
root 0.503437 14.5202 -26.3378 358.342 16.9848 360.902
lfemur -19.3318 8.83608 -17.487
ltibia 68.3985 0 0
lfoot -28.5652 30.5333 0
ltoes -13.8055 0 0
rfemur -31.0588 -6.60547 1.9082
rtibia 51.1696 0 0
rfoot 11.2797 5.42406 0
rtoes -5.22555 0 0
lowerback 14.076 1.34496 -7.43383
upperback -0.246129 0.690021 1.83591
thorax -8.31735 0.686632 6.05493
lowerneck -3.48763 -6.42227 -8.9092
upperneck 7.77756 -8.9115 6.87658
head 4.15956 -4.40813 2.9236
lclavicle -5.82268e-14 1.37783e-14 0
lhumerus -25.9888 -17.2721 92.419
lradius 95.6207 0 0
lwrist 46.2291 0 0
lhand -12.4807 10.0325 0
lfingers 7.12502 0 0
lthumb 13.5726 39.0356 0
rclavicle -5.82268e-14 1.37783e-14 0
rhumerus 27.0285 2.04157 -57.6653
rradius 97.1159 0 0
rwrist -4.17157 0 0
rhand -29.7922 -41.3628 0
rfingers 7.12502 0 0
rthumb -3.11835 -70.9311 0
1128
root 0.471583 14.5208 -26.1384 357.895 18.1963 361.096
lfemur -17.8827 8.48821 -17.2449
ltibia 67.889 0 0
lfoot -28.8432 30.5793 0
ltoes -14.074 0 0
rfemur -31.8023 -6.96131 1.7955
rtibia 50.3711 0 0
rfoot 11.2878 5.31829 0
rtoes -4.71912 0 0
lowerback 14.1583 1.39159 -7.59808
upperback -0.193654 0.713849 1.74858
thorax -8.31217 0.701845 6.04898
lowerneck -3.36795 -6.81554 -9.25119
upperneck 7.94576 -9.44633 7.14463
head 4.2322 -4.67329 3.03149
lclavicle -5.92184e-14 1.34893e-14 0
lhumerus -29.6694 -17.7847 94.0908
lradius 96.1065 0 0
lwrist 46.961 0 0
lhand -11.6721 9.21287 0
lfingers 7.12502 0 0
lthumb 14.3525 38.1922 0
rclavicle -5.92184e-14 1.34893e-14 0
rhumerus 30.1504 1.4012 -56.4967
rradius 96.9259 0 0
rwrist -2.24053 0 0
rhand -30.5198 -41.4808 0
rfingers 7.12502 0 0
rthumb -3.82051 -71.059 0
1129
root 0.440152 14.5212 -25.9419 357.461 19.381 361.287
lfemur -16.4595 8.14832 -17.0044
ltibia 67.3789 0 0
lfoot -29.1097 30.6234 0
ltoes -14.3391 0 0
rfemur -32.5351 -7.31457 1.68871
rtibia 49.6015 0 0
rfoot 11.2842 5.21385 0
rtoes -4.22675 0 0
lowerback 14.2384 1.43796 -7.75925
upperback -0.143186 0.737972 1.66229
thorax -8.30795 0.717184 6.04226
lowerneck -3.24967 -7.20074 -9.58574
upperneck 8.10784 -9.97023 7.40785
head 4.30257 -4.93304 3.13735
lclavicle -6.01308e-14 1.31922e-14 0
lhumerus -33.2699 -18.2827 95.7207
lradius 96.5841 0 0
lwrist 47.6831 0 0
lhand -10.8874 8.43188 0
lfingers 7.12502 0 0
lthumb 15.1094 37.3884 0
rclavicle -6.01308e-14 1.31922e-14 0
rhumerus 33.2018 0.773407 -55.3473
rradius 96.7377 0 0
rwrist -0.355499 0 0
rhand -31.2316 -41.5911 0
rfingers 7.12502 0 0
rthumb -4.50743 -71.1787 0
